<svg width="709" height="345" viewBox="0 0 709 345" fill="none" xmlns="http://www.w3.org/2000/svg">
<g clip-path="url(#clip0_2141_5279)">
<path d="M128.42 237.987V200.438C124.646 197.342 119.938 195.451 114.958 195.451C104.178 195.451 97.8517 203.666 97.8517 219.147C97.8517 233.949 103.774 242.156 114.685 242.156C119.533 242.156 124.514 240.546 128.42 237.987ZM148.351 247.679L134.21 255.349L129.626 245.392C124.918 251.18 117.914 255.349 108.895 255.349C91.657 255.349 82.6377 241.083 82.6377 219.006C82.6377 195.056 93.276 182.126 110.241 182.126C118.187 182.126 124.382 185.09 128.42 190.614V155.344H142.957V236.914L148.351 247.679ZM173.658 210.263H207.993C207.324 199.761 202.343 194.783 193.051 194.783C182.95 194.783 175.945 200.57 173.658 210.263ZM220.514 220.352H172.848C173.798 232.604 183.354 240.81 198.436 240.81C206.109 240.81 214.46 239.2 220.109 236.236L215.534 251.18C210.826 253.731 202.88 255.349 193.72 255.349C172.047 255.349 157.766 240.678 157.766 218.337C157.766 195.856 171.37 182.135 193.051 182.135C210.958 182.135 222.265 192.364 222.265 208.917C222.265 212.682 221.596 217.124 220.514 220.352ZM255.931 253.599L228.46 183.885H244.483L262.39 232.604L264.414 238.664H264.95L266.965 232.604L284.749 183.885H300.5L273.16 253.599H255.931ZM348.165 184.017H379.667L377.652 195.187H346.141L335.098 257.909C332.001 275.403 320.289 282 303.861 282C296.32 282 292.818 280.926 289.052 280.117L288.779 268.806C292.554 269.483 296.997 269.888 303.192 269.888C313.021 269.888 319.48 265.983 320.967 257.777L332.001 195.187H310.056L312.079 184.017H334.025L335.098 177.552C338.196 160.19 349.776 153.602 366.072 153.602C373.745 153.602 377.652 154.675 381.013 155.484L381.286 167.059C377.52 166.118 373.076 165.714 366.881 165.714C357.185 165.714 350.726 169.61 349.239 177.825L348.165 184.017ZM397.846 210.263H432.181C431.512 199.761 426.523 194.783 417.24 194.783C407.138 194.783 400.134 200.57 397.846 210.263ZM444.702 220.352H397.037C397.978 232.604 407.543 240.81 422.625 240.81C430.298 240.81 438.649 239.2 444.298 236.236L439.722 251.18C435.014 253.731 427.069 255.349 417.909 255.349C396.227 255.349 381.955 240.678 381.955 218.337C381.955 195.856 395.558 182.135 417.24 182.135C435.146 182.135 446.453 192.364 446.453 208.917C446.453 212.682 445.785 217.124 444.702 220.352ZM460.321 249.43L459.38 233.818C465.574 238.119 476.881 241.892 488.734 241.892C497.753 241.892 504.221 239.06 504.221 232.736C504.221 219.551 460.858 231.795 460.858 204.88C460.858 192.355 470.291 181.73 492.773 181.73C506.509 181.73 517.006 185.09 517.006 193.437C517.006 195.997 515.933 198.152 514.859 200.166C508.929 197.342 499.636 195.319 491.831 195.319C481.061 195.319 475.403 199.357 475.403 203.798C475.403 215.505 519.294 205.285 519.294 231.531C519.294 246.193 506.377 255.349 487.115 255.349C474.057 255.349 464.228 251.18 460.321 249.43ZM594.299 238.796L591.334 252.385C587.832 253.871 580.828 255.349 574.369 255.349C556.999 255.349 549.599 246.334 549.599 233.545V196.129H529.8V183.885H549.599V164.772H564.135V183.885H592.275V196.129H564.135V229.103C564.135 238.119 568.852 242.156 577.062 242.156C581.778 242.156 590.392 241.083 594.299 238.796ZM179.201 100.239C177.107 99.0521 175.373 97.3194 174.186 95.226C172.962 93.0975 172.347 90.7491 172.347 88.172C172.347 85.5949 172.962 83.2465 174.186 81.118C175.373 79.0246 177.107 77.2919 179.201 76.1045C181.313 74.8907 183.698 74.2574 186.135 74.275C188.018 74.2662 189.892 74.6181 191.643 75.3217C193.368 76.0077 194.785 76.9841 195.902 78.2506L193.641 80.5199C192.779 79.4556 191.652 78.6376 190.394 78.1275C189.039 77.5646 187.596 77.2743 186.135 77.2831C184.305 77.2831 182.51 77.7493 180.917 78.6464C179.289 79.5436 177.943 80.8629 177.01 82.4637C176.033 84.1172 175.541 86.0171 175.541 88.172C175.541 90.3269 176.033 92.2267 177.01 93.8715C177.943 95.4723 179.289 96.7916 180.917 97.6976C182.51 98.5947 184.305 99.0609 186.135 99.0521C187.913 99.0521 189.408 98.7794 190.614 98.2165C191.784 97.68 192.849 96.9324 193.746 96.0088C194.424 95.27 194.952 94.4168 195.313 93.4845C195.717 92.4466 195.955 91.356 196.017 90.2477H186.205V87.3188H198.991C199.114 87.9609 199.176 88.603 199.176 89.2538C199.184 90.8722 198.92 92.4818 198.401 94.021C197.891 95.5515 197.037 96.9412 195.911 98.0934C193.412 100.741 190.148 102.069 186.135 102.069C183.706 102.087 181.313 101.453 179.201 100.239ZM214.117 98.3484C215.102 97.7679 215.903 96.9236 216.44 95.9209C217.021 94.8654 217.311 93.6428 217.311 92.2619C217.311 90.8722 217.021 89.6496 216.44 88.5942C215.903 87.5915 215.102 86.7471 214.117 86.1666C213.175 85.6037 212.093 85.3046 210.993 85.3134C209.911 85.3134 208.846 85.6037 207.913 86.1666C206.937 86.7471 206.127 87.5915 205.59 88.5942C205.001 89.6496 204.71 90.8722 204.71 92.2531C204.71 93.6428 205.001 94.8566 205.581 95.9121C206.118 96.9236 206.928 97.7679 207.913 98.3484C208.837 98.9114 209.911 99.2104 210.993 99.2016C212.093 99.2104 213.175 98.9114 214.117 98.3484ZM206.127 100.785C204.702 99.9404 203.531 98.7179 202.766 97.249C201.956 95.7538 201.551 94.0914 201.551 92.2531C201.551 90.4237 201.956 88.7613 202.766 87.2661C203.531 85.7972 204.702 84.5746 206.127 83.7302C207.561 82.8771 209.189 82.4461 210.993 82.4461C212.806 82.4461 214.434 82.8771 215.885 83.7302C217.311 84.5746 218.49 85.7884 219.264 87.2573C220.065 88.7613 220.47 90.4237 220.47 92.2531C220.47 94.0914 220.065 95.7538 219.264 97.249C218.49 98.7179 217.311 99.9404 215.885 100.785C214.434 101.638 212.806 102.06 210.993 102.06C209.189 102.06 207.561 101.638 206.127 100.785ZM235.182 98.3484C236.168 97.7679 236.969 96.9236 237.505 95.9209C238.086 94.8654 238.376 93.6428 238.376 92.2619C238.376 90.8722 238.086 89.6584 237.505 88.603C236.969 87.5915 236.168 86.7559 235.182 86.1666C234.241 85.6037 233.167 85.3134 232.067 85.3134C230.976 85.3134 229.912 85.6037 228.979 86.1666C228.002 86.7559 227.193 87.5915 226.656 88.603C226.075 89.6497 225.785 90.8722 225.785 92.2619C225.785 93.6428 226.075 94.8654 226.656 95.9209C227.193 96.9236 228.002 97.7679 228.979 98.3484C229.912 98.9114 230.976 99.2104 232.067 99.2016C233.167 99.2104 234.241 98.9114 235.182 98.3484ZM227.193 100.785C225.767 99.9404 224.606 98.7179 223.831 97.249C223.031 95.7538 222.626 94.0914 222.626 92.2531C222.626 90.4237 223.031 88.7613 223.831 87.2661C224.606 85.7972 225.767 84.5746 227.193 83.7302C228.636 82.8771 230.255 82.4461 232.059 82.4461C233.871 82.4461 235.499 82.8771 236.951 83.7302C238.385 84.5658 239.556 85.7884 240.33 87.2573C241.139 88.7613 241.535 90.4237 241.535 92.2531C241.535 94.0914 241.139 95.7538 240.33 97.249C239.556 98.7179 238.385 99.9404 236.951 100.776C235.499 101.638 233.871 102.06 232.059 102.06C230.255 102.06 228.636 101.638 227.193 100.785ZM255.922 98.366C256.864 97.7767 257.629 96.9412 258.131 95.9561C258.694 94.9094 258.967 93.678 258.967 92.2531C258.967 90.837 258.694 89.5969 258.131 88.5414C257.577 87.4859 256.837 86.6768 255.922 86.1314C255.016 85.5861 253.969 85.3046 252.913 85.3134C251.848 85.3046 250.81 85.5949 249.904 86.149C248.962 86.7383 248.196 87.5739 247.686 88.559C247.132 89.6057 246.85 90.837 246.85 92.2531C246.85 93.678 247.132 94.9094 247.686 95.9561C248.196 96.9412 248.962 97.7767 249.904 98.366C251.751 99.4831 254.066 99.4831 255.922 98.366ZM247.378 108.49C245.961 107.425 245.011 106.185 244.51 104.778L247.449 103.547C247.809 104.62 248.504 105.552 249.437 106.203C250.396 106.889 251.523 107.223 252.843 107.223C254.796 107.223 256.301 106.66 257.357 105.526C258.412 104.391 258.94 102.799 258.932 100.758V98.797H258.782C258.184 99.7293 257.33 100.512 256.213 101.137C255.104 101.761 253.837 102.069 252.429 102.069C250.88 102.069 249.376 101.638 248.073 100.802C246.718 99.9316 245.618 98.7267 244.879 97.293C244.087 95.7977 243.691 94.1266 243.691 92.2619C243.691 90.3973 244.087 88.7173 244.879 87.2309C245.618 85.7972 246.718 84.5922 248.073 83.7214C249.376 82.8859 250.88 82.4461 252.429 82.4549C253.837 82.4549 255.104 82.7627 256.213 83.3784C257.33 84.0029 258.184 84.7857 258.782 85.7268H258.932V83.0442H261.95V100.723C261.95 102.755 261.554 104.479 260.762 105.886C260.023 107.241 258.888 108.34 257.506 109.044C256.133 109.73 254.576 110.082 252.843 110.082C250.608 110.082 248.786 109.554 247.378 108.49ZM265.733 74.8731H268.892V101.462H265.733V74.8731ZM286.359 90.2126C286.297 89.4386 286.077 88.6821 285.726 87.9873C285.347 87.2397 284.749 86.6064 283.922 86.0875C283.095 85.5685 282.03 85.3134 280.745 85.3134C279.416 85.2871 278.132 85.7708 277.137 86.6504C276.117 87.5387 275.483 88.7261 275.21 90.2126H286.359ZM276.266 100.802C274.876 99.958 273.732 98.753 272.984 97.3106C272.192 95.8241 271.796 94.1354 271.796 92.2531C271.779 90.5468 272.157 88.8668 272.905 87.3276C273.618 85.8764 274.718 84.6362 276.09 83.7654C277.463 82.8859 279.038 82.4461 280.824 82.4461C282.611 82.4461 284.177 82.8507 285.523 83.6511C286.869 84.4603 287.952 85.6389 288.629 87.055C289.342 88.515 289.703 90.2038 289.703 92.1036C289.712 92.3587 289.694 92.605 289.632 92.8512H274.982C275.034 94.2321 275.369 95.4107 275.985 96.3607C276.557 97.2666 277.357 98.0054 278.308 98.4892C279.196 98.9553 280.191 99.1928 281.194 99.2016C283.517 99.2016 285.321 98.0582 286.588 95.7801L289.377 97.1171C288.603 98.5771 287.477 99.8085 286.086 100.706C284.687 101.603 283.007 102.06 281.053 102.06C279.267 102.06 277.665 101.638 276.266 100.802ZM309.844 98.4628C312.986 98.4628 315.476 97.5568 317.315 95.745C319.145 93.9419 320.06 91.4176 320.06 88.172C320.06 84.9264 319.145 82.4021 317.315 80.5902C315.476 78.7871 312.986 77.8812 309.844 77.8812H304.934V98.4628H309.844ZM301.775 74.8731H309.844C312.572 74.8731 314.948 75.436 316.981 76.5619C318.96 77.6437 320.588 79.2709 321.662 81.2587C322.753 83.2641 323.299 85.5685 323.299 88.172C323.299 90.7667 322.753 93.0711 321.662 95.0765C320.588 97.0643 318.96 98.7003 316.981 99.7821C314.948 100.908 312.563 101.471 309.844 101.471H301.775V74.8731ZM340.528 90.2126C340.475 89.4386 340.255 88.6821 339.894 87.9873C339.524 87.2397 338.926 86.6064 338.099 86.0875C337.263 85.5685 336.207 85.3134 334.914 85.3134C333.594 85.2871 332.3 85.762 331.315 86.6504C330.294 87.5387 329.652 88.7261 329.379 90.2126H340.528ZM330.444 100.802C329.044 99.958 327.909 98.753 327.161 97.3106C326.361 95.8241 325.965 94.1354 325.965 92.2531C325.947 90.5468 326.334 88.8668 327.082 87.3276C327.795 85.8764 328.895 84.6362 330.259 83.7654C331.64 82.8859 333.215 82.4461 335.002 82.4461C336.779 82.4461 338.345 82.8507 339.7 83.6511C341.047 84.4603 342.129 85.6389 342.807 87.055C343.519 88.515 343.88 90.2038 343.88 92.1036C343.889 92.3587 343.871 92.605 343.81 92.8512H329.168C329.212 94.2321 329.546 95.4107 330.171 96.3607C330.734 97.2666 331.535 98.0054 332.494 98.4892C333.383 98.9553 334.368 99.1928 335.371 99.2016C337.703 99.2016 339.498 98.0582 340.756 95.7801L343.546 97.1171C342.78 98.5771 341.645 99.8085 340.264 100.706C338.864 101.603 337.184 102.06 335.23 102.06C333.444 102.06 331.851 101.638 330.444 100.802ZM344.628 83.0442H348.042L353.691 97.7504H353.762L359.49 83.0442H362.834L355.284 101.471H352.09L344.628 83.0442ZM378.699 90.2126C378.637 89.4386 378.426 88.6821 378.065 87.9873C377.696 87.2397 377.097 86.6064 376.27 86.0875C375.434 85.5685 374.378 85.3134 373.085 85.3134C371.765 85.2871 370.472 85.7708 369.486 86.6504C368.465 87.5387 367.823 88.7261 367.55 90.2126H378.699ZM368.615 100.802C367.216 99.958 366.081 98.753 365.324 97.3106C364.532 95.8241 364.136 94.1354 364.136 92.2531C364.118 90.5468 364.506 88.8668 365.254 87.3276C365.966 85.8764 367.057 84.6362 368.43 83.7654C369.803 82.8859 371.387 82.4461 373.173 82.4461C374.95 82.4461 376.517 82.8507 377.872 83.6511C379.218 84.4603 380.292 85.6389 380.969 87.055C381.691 88.515 382.051 90.2038 382.051 92.1036C382.06 92.3587 382.034 92.605 381.972 92.8512H367.33C367.374 94.2321 367.709 95.4107 368.333 96.3607C368.896 97.2666 369.706 98.0054 370.656 98.4892C371.545 98.9553 372.531 99.1928 373.534 99.2016C375.866 99.2016 377.661 98.0582 378.928 95.7801L381.708 97.1171C380.943 98.5771 379.808 99.8085 378.426 100.706C377.027 101.603 375.346 102.06 373.393 102.06C371.607 102.06 370.014 101.638 368.615 100.802ZM385.237 74.8731H388.405V101.462H385.237V74.8731ZM403.97 98.3484C404.947 97.7679 405.757 96.9236 406.293 95.9209C406.874 94.8654 407.165 93.6428 407.165 92.2619C407.165 90.8722 406.874 89.6584 406.293 88.603C405.757 87.5915 404.947 86.7471 403.97 86.1578C403.029 85.5949 401.947 85.3046 400.847 85.3046C399.764 85.3046 398.7 85.6037 397.767 86.1578C396.781 86.7471 395.981 87.5827 395.444 88.5942C394.863 89.6496 394.573 90.8634 394.573 92.2531C394.573 93.6428 394.863 94.8566 395.444 95.9121C395.981 96.9236 396.781 97.7679 397.767 98.3484C398.7 98.9114 399.764 99.2104 400.847 99.2016C401.947 99.2104 403.029 98.9114 403.97 98.3484ZM395.981 100.785C394.555 99.9404 393.385 98.7179 392.619 97.249C391.81 95.7538 391.405 94.0914 391.405 92.2531C391.414 90.4237 391.81 88.7613 392.619 87.2661C393.394 85.7972 394.555 84.5746 395.981 83.7302C397.415 82.8771 399.043 82.4461 400.847 82.4461C402.659 82.4461 404.287 82.8771 405.739 83.7302C407.173 84.5746 408.344 85.7884 409.118 87.2661C409.928 88.7613 410.332 90.4237 410.332 92.2531C410.332 94.0914 409.928 95.7538 409.118 97.249C408.344 98.7179 407.173 99.9404 405.739 100.785C404.287 101.638 402.659 102.06 400.856 102.06C399.043 102.06 397.424 101.638 395.981 100.785ZM425.318 98.3484C426.268 97.7591 427.042 96.9148 427.544 95.9209C428.107 94.8654 428.389 93.6428 428.389 92.2619C428.389 90.8722 428.107 89.6584 427.544 88.603C427.042 87.6003 426.268 86.7647 425.318 86.1666C424.411 85.6037 423.355 85.3046 422.291 85.3134C421.226 85.3046 420.179 85.5949 419.264 86.149C418.313 86.7295 417.539 87.5651 417.037 88.5678C416.474 89.6145 416.201 90.8458 416.201 92.2619C416.201 93.6516 416.474 94.8742 417.037 95.9385C417.592 97.0027 418.331 97.8119 419.264 98.366C420.179 98.9202 421.226 99.2104 422.291 99.2016C423.364 99.2104 424.411 98.9114 425.318 98.3484ZM413.183 83.0442H416.193V85.7532H416.342C416.941 84.8209 417.794 84.0293 418.912 83.396C420.029 82.7627 421.314 82.4461 422.775 82.4461C424.323 82.4373 425.854 82.8859 427.157 83.7302C428.512 84.601 429.612 85.8148 430.351 87.2397C431.143 88.7261 431.539 90.3973 431.539 92.2531C431.539 94.109 431.143 95.7801 430.351 97.2666C429.612 98.7003 428.512 99.9053 427.157 100.776C425.854 101.62 424.332 102.069 422.775 102.06C421.314 102.06 420.012 101.744 418.885 101.11C417.759 100.486 416.914 99.6854 416.342 98.7179H416.193L416.342 101.277V109.492H413.183V83.0442ZM449.005 90.2126C448.944 89.4386 448.733 88.6821 448.372 87.9873C448.002 87.2397 447.404 86.6064 446.568 86.0875C445.741 85.5685 444.685 85.3134 443.391 85.3134C442.071 85.2871 440.778 85.7708 439.792 86.6504C438.772 87.5387 438.129 88.7261 437.857 90.2126H449.005ZM438.921 100.802C437.522 99.958 436.387 98.753 435.63 97.3106C434.838 95.8241 434.442 94.1354 434.442 92.2531C434.425 90.5468 434.812 88.8668 435.56 87.3276C436.273 85.8764 437.373 84.6362 438.737 83.7654C440.109 82.8859 441.693 82.4461 443.479 82.4461C445.257 82.4461 446.832 82.8507 448.178 83.6511C449.524 84.4603 450.607 85.6389 451.276 87.055C451.997 88.515 452.358 90.2038 452.358 92.1036C452.367 92.3587 452.34 92.605 452.287 92.8512H437.645C437.689 94.2321 438.024 95.4107 438.64 96.3607C439.212 97.2666 440.012 98.0054 440.963 98.4892C441.86 98.9553 442.846 99.1928 443.849 99.2016C446.172 99.2016 447.976 98.0582 449.234 95.7801L452.023 97.1171C451.258 98.5771 450.123 99.8085 448.741 100.706C447.342 101.603 445.662 102.06 443.699 102.06C441.913 102.06 440.32 101.638 438.921 100.802ZM455.552 83.0442H458.561V86.0523H458.702C459.054 85.0408 459.767 84.1788 460.84 83.4928C461.923 82.7979 462.996 82.4461 464.061 82.4461C464.791 82.4461 465.522 82.5692 466.208 82.8243V86.2018C465.548 85.8324 464.677 85.6477 463.612 85.6477C462.741 85.6477 461.896 85.9115 461.175 86.4041C460.418 86.923 459.793 87.6179 459.371 88.4359C458.931 89.289 458.702 90.2302 458.702 91.1889V101.471H455.552V83.0442ZM482.469 100.239C480.375 99.0521 478.641 97.3194 477.453 95.226C476.23 93.0975 475.614 90.7491 475.614 88.172C475.614 85.5949 476.23 83.2465 477.453 81.1092C478.641 79.0246 480.375 77.2831 482.469 76.0957C484.581 74.8907 486.974 74.2574 489.403 74.275C491.286 74.2662 493.16 74.6181 494.911 75.3217C496.636 76.0077 498.053 76.9841 499.17 78.2506L496.9 80.5199C496.038 79.4556 494.92 78.6376 493.653 78.1187C492.307 77.5558 490.855 77.2743 489.394 77.2831C487.564 77.2743 485.769 77.7405 484.176 78.6376C482.557 79.5436 481.202 80.8629 480.269 82.4637C479.292 84.1172 478.809 86.0171 478.809 88.172C478.809 90.3269 479.301 92.2267 480.278 93.8715C481.211 95.4723 482.557 96.7916 484.176 97.6976C485.769 98.5947 487.573 99.0609 489.403 99.0521C491.189 99.0521 492.676 98.7794 493.882 98.2165C495.052 97.68 496.117 96.9324 497.023 96.0088C497.692 95.27 498.22 94.4168 498.581 93.4845C498.985 92.4466 499.223 91.356 499.284 90.2477H489.473V87.3188H502.259C502.373 87.9609 502.435 88.603 502.443 89.2538C502.443 90.8722 502.179 92.4818 501.66 94.021C501.15 95.5515 500.305 96.9412 499.17 98.0934C496.671 100.741 493.415 102.069 489.403 102.069C486.965 102.087 484.572 101.453 482.469 100.239ZM506.051 83.0442H509.061V86.0523H509.21C509.553 85.0408 510.266 84.1788 511.348 83.4928C512.422 82.7979 513.495 82.4461 514.56 82.4461C515.29 82.4461 516.021 82.5692 516.716 82.8243V86.2018C516.047 85.8324 515.176 85.6477 514.111 85.6477C513.24 85.6477 512.395 85.9115 511.683 86.4041C510.917 86.923 510.301 87.6179 509.879 88.4359C509.43 89.289 509.201 90.2302 509.21 91.1889V101.471H506.051V83.0442ZM529.686 98.3484C530.663 97.7679 531.464 96.9236 532.009 95.9209C532.59 94.8654 532.88 93.6428 532.88 92.2531C532.88 90.8722 532.59 89.6496 532.009 88.5942C531.464 87.5915 530.663 86.7471 529.686 86.1666C528.736 85.6037 527.662 85.3046 526.562 85.3134C525.471 85.3046 524.407 85.6037 523.474 86.1666C522.497 86.7471 521.688 87.5915 521.151 88.5942C520.57 89.6496 520.28 90.8722 520.28 92.2531C520.28 93.6428 520.57 94.8654 521.151 95.9121C521.688 96.9236 522.488 97.7679 523.474 98.3484C524.407 98.9114 525.471 99.2016 526.554 99.2016C527.653 99.2104 528.736 98.9114 529.686 98.3484ZM521.696 100.785C520.262 99.9404 519.1 98.7179 518.335 97.249C517.525 95.7538 517.121 94.0914 517.121 92.2531C517.121 90.4237 517.525 88.7613 518.335 87.2661C519.109 85.7972 520.271 84.5746 521.696 83.7302C523.131 82.8771 524.758 82.4461 526.571 82.4461C528.375 82.4461 530.003 82.8771 531.455 83.7302C532.889 84.5746 534.059 85.7884 534.834 87.2573C535.643 88.7613 536.039 90.4237 536.039 92.2531C536.039 94.0914 535.643 95.7538 534.834 97.249C534.059 98.7179 532.889 99.9404 531.455 100.785C530.003 101.638 528.375 102.06 526.571 102.06C524.758 102.06 523.131 101.638 521.696 100.785ZM540.668 100.09C539.488 98.7794 538.899 96.9588 538.899 94.6367V83.0442H542.058V94.1178C542.058 97.5041 543.58 99.2016 546.633 99.2016C547.61 99.2104 548.569 98.9114 549.361 98.3484C550.171 97.7767 550.804 97.0115 551.218 96.1232C551.649 95.2172 551.869 94.2233 551.869 93.2206V83.0442H554.993V101.471H552.019V98.7179H551.869C551.324 99.659 550.505 100.451 549.397 101.093C548.323 101.735 547.1 102.069 545.85 102.06C543.571 102.06 541.838 101.409 540.668 100.09ZM571.245 98.3484C572.195 97.7591 572.97 96.9148 573.471 95.9209C574.035 94.8654 574.307 93.6428 574.307 92.2619C574.307 90.8722 574.035 89.6584 573.471 88.603C572.97 87.6003 572.195 86.7647 571.245 86.1666C570.339 85.6037 569.292 85.3046 568.218 85.3134C567.153 85.3046 566.106 85.5949 565.191 86.149C564.241 86.7295 563.467 87.5651 562.965 88.5678C562.402 89.6145 562.129 90.8458 562.12 92.2619C562.12 93.6516 562.402 94.8742 562.965 95.9385C563.519 97.0027 564.258 97.8119 565.191 98.366C566.106 98.9202 567.153 99.2104 568.218 99.2016C569.292 99.2104 570.339 98.9114 571.245 98.3484ZM559.111 83.0442H562.12V85.7532H562.27C562.868 84.8209 563.722 84.0293 564.839 83.396C565.948 82.7627 567.241 82.4461 568.702 82.4461C570.26 82.4373 571.782 82.8859 573.093 83.7302C574.448 84.601 575.548 85.8148 576.287 87.2397C577.079 88.7261 577.475 90.3973 577.475 92.2531C577.475 94.1178 577.079 95.7889 576.287 97.2666C575.548 98.7003 574.448 99.9053 573.093 100.785C571.782 101.629 570.26 102.069 568.702 102.06C567.241 102.06 565.948 101.744 564.822 101.11C563.695 100.486 562.851 99.6854 562.279 98.7179H562.129L562.279 101.286V109.492H559.12L559.111 83.0442ZM582.007 100.583C580.643 99.5886 579.684 98.3572 579.147 96.906L581.927 95.6746C582.429 96.8356 583.124 97.7328 584.031 98.3484C584.893 98.9553 585.922 99.2808 586.987 99.2808C588.175 99.2808 589.161 99.0169 589.935 98.498C590.718 97.979 591.105 97.3458 591.114 96.6069C591.123 95.9033 590.797 95.2436 590.234 94.8214C589.653 94.3553 588.659 93.9419 587.242 93.5988L584.717 92.9568C583.415 92.6753 582.191 92.0772 581.171 91.2153C580.194 90.3709 579.701 89.2539 579.701 87.8642C579.701 86.7295 580.027 85.7532 580.687 84.9352C581.382 84.0997 582.279 83.4576 583.309 83.0794C584.444 82.6484 585.658 82.4373 586.873 82.4461C588.386 82.4285 589.882 82.8067 591.202 83.5455C592.46 84.2228 593.437 85.3222 593.974 86.6504L591.184 87.8378C590.832 86.9934 590.19 86.2985 589.381 85.8676C588.545 85.4366 587.621 85.2255 586.688 85.2343C585.764 85.2255 584.858 85.463 584.066 85.9379C583.283 86.4129 582.895 87.011 582.895 87.7586C582.869 88.3655 583.159 88.9372 583.652 89.2802C584.163 89.6584 584.972 89.9927 586.09 90.2829L588.835 90.9514C590.665 91.4263 592.038 92.1212 592.944 93.0535C593.824 93.9331 594.317 95.1293 594.299 96.3782C594.308 97.4161 593.983 98.4364 593.367 99.272C592.751 100.143 591.879 100.82 590.771 101.321C589.653 101.814 588.386 102.06 586.978 102.06C585.025 102.06 583.371 101.568 582.007 100.583ZM111.922 95.3052L91.3666 83.44C88.5508 81.848 84.9783 82.8507 83.3944 85.6653C81.8282 88.4359 82.7697 91.9541 85.5151 93.5725L106.061 105.438C108.912 106.968 112.459 105.913 113.998 103.063C115.477 100.336 114.562 96.9324 111.922 95.3052ZM152.909 83.44L132.354 71.5748C129.52 70.018 125.965 71.0647 124.408 73.8968C122.903 76.641 123.827 80.0801 126.502 81.6985L147.057 93.5725C149.856 95.182 153.437 94.2233 155.047 91.4263C156.666 88.6294 155.707 85.0496 152.909 83.44ZM146.239 94.9798L136.648 89.4386L126.502 95.3052C123.704 96.9148 122.745 100.495 124.355 103.292C125.974 106.097 129.556 107.056 132.354 105.438L148.879 95.9033C147.946 95.7626 147.057 95.4459 146.239 94.9798ZM92.1761 82.0239L101.767 87.5651L111.922 81.7073C114.676 80.0097 115.529 76.4036 113.831 73.6505C112.203 71.0119 108.798 70.0971 106.061 71.5748L89.5451 81.1092C90.4691 81.2499 91.3666 81.5577 92.1761 82.0239Z" fill="white"/>
<path d="M701.346 217.134H671.646V336.763H701.346V217.134Z" fill="#CE1126"/>
<path d="M573.676 318.883V336.763H674.504V318.883H573.676Z" fill="#CE1126"/>
<path d="M681.416 204.416H655.979V229.853H681.416V204.416Z" fill="#007A3D"/>
<path d="M635.979 250.866V286.994H599.759V322.938H672.2V293.054V286.994V250.866H635.979Z" fill="white"/>
<mask id="mask0_2141_5279" style="mask-type:luminance" maskUnits="userSpaceOnUse" x="599" y="250" width="74" height="73">
<path d="M635.979 250.889V286.994H599.759V322.961H672.223V293.054V286.994V250.889H635.979Z" fill="white"/>
</mask>
<g mask="url(#mask0_2141_5279)">
<path d="M599.113 324.389H673.19V250.313H599.113V324.389Z" stroke="white" stroke-width="0.25" stroke-miterlimit="10"/>
<path d="M636.14 324.39C656.602 324.39 673.19 307.802 673.19 287.34C673.19 266.878 656.602 250.29 636.14 250.29C615.678 250.29 599.09 266.878 599.09 287.34C599.09 307.802 615.678 324.39 636.14 324.39Z" stroke="white" stroke-width="0.25" stroke-miterlimit="10"/>
<path d="M673.19 287.34H599.09" stroke="white" stroke-width="0.25" stroke-miterlimit="10"/>
<path d="M636.14 250.29V324.39" stroke="white" stroke-width="0.25" stroke-miterlimit="10"/>
</g>
<g clip-path="url(#clip1_2141_5279)">
<path d="M80.6339 8H8V47.054H80.6339V8Z" fill="#007A3D"/>
<path d="M91.3408 45.0435H76.3079V60.0684H91.3408V45.0435Z" fill="#007A3D"/>
<path d="M50.2977 72.0342H27.4238V94.8958H50.2977V72.0342Z" fill="#007A3D"/>
<path d="M36.5734 45.9731H8V72.7261H36.5734V45.9731Z" fill="#007A3D"/>
</g>
</g>
<defs>
<clipPath id="clip0_2141_5279">
<rect width="693" height="329" fill="white" transform="translate(8 8)"/>
</clipPath>
<clipPath id="clip1_2141_5279">
<rect width="83.33" height="86.9067" fill="white" transform="translate(8 8)"/>
</clipPath>
</defs>
</svg>
